<?xml version="1.0" encoding="utf-8"?>
<!-- Generator: Adobe Illustrator 27.7.0, SVG Export Plug-In . SVG Version: 6.00 Build 0)  -->
<svg version="1.1" xmlns="http://www.w3.org/2000/svg" xmlns:xlink="http://www.w3.org/1999/xlink" x="0px" y="0px"
	 viewBox="0 0 2000 2000" style="enable-background:new 0 0 2000 2000;" xml:space="preserve">
<style type="text/css">
	.st0{fill:url(#SVGID_1_);}
	.st1{filter:url(#Adobe_OpacityMaskFilter_00000009565897399473889800000017544724205307934089_);}
	.st2{filter:url(#Adobe_OpacityMaskFilter_00000063606462947619975450000015364203882828669096_);}
	.st3{mask:url(#id0_1_);fill:url(#SVGID_00000041287225956651299750000007645839600678661296_);}
	.st4{fill:url(#SVGID_00000168094839493548941450000008936715104684068515_);}
	.st5{fill:#020C6A;}
	.st6{filter:url(#Adobe_OpacityMaskFilter_00000063614735478159449550000015847347943968888706_);}
	.st7{filter:url(#Adobe_OpacityMaskFilter_00000011731776948847144560000012112766061548292240_);}
	.st8{mask:url(#id2_1_);fill:url(#SVGID_00000065040215528840663780000005745441229916949432_);}
	.st9{fill:url(#SVGID_00000068663183992109217730000012334918316517787564_);}
	.st10{filter:url(#Adobe_OpacityMaskFilter_00000138533795466425481440000017406085311097087657_);}
	.st11{filter:url(#Adobe_OpacityMaskFilter_00000130605487974938488820000011864416303467377815_);}
	.st12{mask:url(#id4_1_);fill:url(#SVGID_00000023270208820568748060000014184046506339822013_);}
	.st13{fill:url(#SVGID_00000037682153918051196190000010288079091992213390_);}
	.st14{filter:url(#Adobe_OpacityMaskFilter_00000178198685769665179630000012136438303034936745_);}
	.st15{filter:url(#Adobe_OpacityMaskFilter_00000149340085829622662670000000085822182384603010_);}
	.st16{mask:url(#id6_1_);fill:url(#SVGID_00000000220339070056880310000002454364725510872499_);}
	.st17{fill:url(#SVGID_00000011736288193888243290000012445783306919929783_);}
</style>
<g id="Layer_1">
	<g>
		
			<linearGradient id="SVGID_1_" gradientUnits="userSpaceOnUse" x1="662.8895" y1="764.4898" x2="662.8895" y2="1399.0403" gradientTransform="matrix(1 0 0 -1 0 2002)">
			<stop  offset="0" style="stop-color:#114FEE"/>
			<stop  offset="1" style="stop-color:#F98AFE"/>
		</linearGradient>
		<path class="st0" d="M501.1,906c19.2-3.3,43.2-4.9,65.4-0.5c13.8-37.3-8.7-74.3-54-67.1c-21.7,3.4-41,17.2-43.4,39.8
			c4.7,2.6,9.2,5.5,13.6,8.9C490.1,892.9,496.2,899.2,501.1,906z M609.5,926.5c3.8,3.6,7.2,7.6,10.2,12.2
			c27.9,42.7,0,100.2-63.8,110.6c-32.1,5.2-62.9-1.3-86.6-7.7c-6.1,3-12.6,5-19.5,6.1c-27.3,4-50.3-6.1-63.6-23.5
			c-23.2-30.3,6.9-83.4,44.5-83.4c-47,34.2-0.9,76.4,24.6,52.8c16.2-15,23.5-49-2-68.7c-36.6-28.3-98.8-2.7-98.8,65.6
			c0,85.2,107.1,98,172.9,98h239.8c55.7,0,147.9-0.8,184.6-51.2c30.9-42.5,20.4-94.2-6.8-120.4c-47.7-46-117.7,13.1-94.8,57.8
			c5,9.7,13.7,16.4,24.2,17.3c23.8,2.1,41.7-35,20.6-63.7c53.1,13.9,51.4,115.5-24.7,111.4c-71-3.9-104.9-106.3-30.5-163.8
			c10.5-8.1,21.1-14,31.7-18c-38-58.8-52.2-131.9-109.5-167.3c-71.1-44-164.7-3.7-167.3,87.3c-3.1,108.2,135,118.1,138.6,23.9
			c2.6-65.9-72-73.6-62.4-4.4c2,14.6,11.2,35.1,31.9,37.1c-45,12.1-79.9-11.1-78.2-58.8c1.4-39.2,33.6-77.4,84.3-72
			c106.2,11.4,99.2,212.8-43.3,210c-17.6-0.3-34.2-4.5-49-11.8C615.2,910.4,612.8,918.6,609.5,926.5L609.5,926.5z M547.4,792.6
			c-0.4-5.2-0.5-10.5-0.3-15.9c4.7-162.6,217-214.9,308.1-53.8c23.8,42.1,48.6,105.5,82.8,134.5l0,0
			c69.1,24.7,112.5,125.6,52.4,208.1c-49.2,67.5-149.9,71-223.1,71H527.5c-96.9,0-226.4-28.5-220.5-153.7
			c3.5-74.2,59.5-118,115.3-116.9C432.4,808.7,495.5,781,547.4,792.6L547.4,792.6z M508.1,1000.9c28.1,4.5,60.3,4.3,72-17
			c9.2-16.9-6.9-30.8-30.8-32.8c-11-0.9-22.2-0.2-31.7,0.9C518.8,969,515.2,986,508.1,1000.9z"/>
		<defs>
			<filter id="Adobe_OpacityMaskFilter" filterUnits="userSpaceOnUse" x="422.4" y="790" width="194.3" height="136.5">
				<feColorMatrix  type="matrix" values="1 0 0 0 0  0 1 0 0 0  0 0 1 0 0  0 0 0 1 0"/>
			</filter>
		</defs>
		<mask maskUnits="userSpaceOnUse" x="422.4" y="790" width="194.3" height="136.5" id="id0_1_">
			<defs>
				
					<filter id="Adobe_OpacityMaskFilter_00000008835926685095677890000001755667425669275273_" filterUnits="userSpaceOnUse" x="422.4" y="790" width="194.3" height="136.5">
					<feFlood  style="flood-color:white;flood-opacity:1" result="back"/>
					<feBlend  in="SourceGraphic" in2="back" mode="normal"/>
				</filter>
			</defs>
			
				<mask maskUnits="userSpaceOnUse" x="422.4" y="790" width="194.3" height="136.5" id="id0_1_" style="filter:url(#Adobe_OpacityMaskFilter);">
				<g style="filter:url(#Adobe_OpacityMaskFilter_00000008835926685095677890000001755667425669275273_);">
					<defs>
						
							<filter id="Adobe_OpacityMaskFilter_00000065075126168727378920000001972692378439857818_" filterUnits="userSpaceOnUse" x="422.4" y="790" width="194.3" height="136.5">
							<feFlood  style="flood-color:white;flood-opacity:1" result="back"/>
							<feBlend  in="SourceGraphic" in2="back" mode="normal"/>
						</filter>
					</defs>
					<mask maskUnits="userSpaceOnUse" x="422.4" y="790" width="194.3" height="136.5" id="id0_1_">
						<g style="filter:url(#Adobe_OpacityMaskFilter_00000065075126168727378920000001972692378439857818_);">
						</g>
					</mask>
					
						<linearGradient id="SVGID_00000080911891946528953470000004367858740673778828_" gradientUnits="userSpaceOnUse" x1="437.6749" y1="1085.7239" x2="537.9448" y2="1156.8138" gradientTransform="matrix(1 0 0 -1 0 2002)">
						<stop  offset="0" style="stop-color:#FFFFFF"/>
						<stop  offset="1" style="stop-color:#000000"/>
					</linearGradient>
					
						<rect x="422.4" y="790" style="mask:url(#id0_1_);fill:url(#SVGID_00000080911891946528953470000004367858740673778828_);" width="194.3" height="136.5"/>
				</g>
			</mask>
			
				<linearGradient id="SVGID_00000067223023438204159040000004727449029411665577_" gradientUnits="userSpaceOnUse" x1="437.6749" y1="1085.7239" x2="537.9448" y2="1156.8138" gradientTransform="matrix(1 0 0 -1 0 2002)">
				<stop  offset="0" style="stop-color:#FFFFFF"/>
				<stop  offset="1" style="stop-color:#FFFFFF"/>
			</linearGradient>
			
				<rect x="422.4" y="790" style="fill:url(#SVGID_00000067223023438204159040000004727449029411665577_);" width="194.3" height="136.5"/>
		</mask>
		<path class="st5" d="M566.5,905.5c13.8-37.3-8.7-74.3-54-67.1c-21.7,3.4-41,17.2-43.4,39.8c-14.7-8.1-30.7-12.1-46.7-12.4
			c10-57.1,73.1-84.9,125.1-73.2c3.5,50.3,30.6,90.6,69.2,109.5c-1.5,8.3-3.9,16.5-7.1,24.4C597.7,915.2,582.5,908.8,566.5,905.5z"
			/>
		<defs>
			
				<filter id="Adobe_OpacityMaskFilter_00000115479482351486091780000000455644719282071936_" filterUnits="userSpaceOnUse" x="422.4" y="790" width="194.3" height="136.5">
				<feColorMatrix  type="matrix" values="1 0 0 0 0  0 1 0 0 0  0 0 1 0 0  0 0 0 1 0"/>
			</filter>
		</defs>
		<mask maskUnits="userSpaceOnUse" x="422.4" y="790" width="194.3" height="136.5" id="id2_1_">
			<defs>
				
					<filter id="Adobe_OpacityMaskFilter_00000146501647467155122050000011532822176246449051_" filterUnits="userSpaceOnUse" x="422.4" y="790" width="194.3" height="136.5">
					<feFlood  style="flood-color:white;flood-opacity:1" result="back"/>
					<feBlend  in="SourceGraphic" in2="back" mode="normal"/>
				</filter>
			</defs>
			
				<mask maskUnits="userSpaceOnUse" x="422.4" y="790" width="194.3" height="136.5" id="id2_1_" style="filter:url(#Adobe_OpacityMaskFilter_00000115479482351486091780000000455644719282071936_);">
				<g style="filter:url(#Adobe_OpacityMaskFilter_00000146501647467155122050000011532822176246449051_);">
					<defs>
						
							<filter id="Adobe_OpacityMaskFilter_00000033339368008789798360000001593534606204940160_" filterUnits="userSpaceOnUse" x="422.4" y="790" width="194.3" height="136.5">
							<feFlood  style="flood-color:white;flood-opacity:1" result="back"/>
							<feBlend  in="SourceGraphic" in2="back" mode="normal"/>
						</filter>
					</defs>
					<mask maskUnits="userSpaceOnUse" x="422.4" y="790" width="194.3" height="136.5" id="id2_1_">
						<g style="filter:url(#Adobe_OpacityMaskFilter_00000033339368008789798360000001593534606204940160_);">
						</g>
					</mask>
					
						<linearGradient id="SVGID_00000044895584911495156560000001806731749100942236_" gradientUnits="userSpaceOnUse" x1="637.2387" y1="1143.75" x2="512.2787" y2="1143.75" gradientTransform="matrix(1 0 0 -1 0 2002)">
						<stop  offset="0" style="stop-color:#FFFFFF"/>
						<stop  offset="1" style="stop-color:#000000"/>
					</linearGradient>
					
						<rect x="422.4" y="790" style="mask:url(#id2_1_);fill:url(#SVGID_00000044895584911495156560000001806731749100942236_);" width="194.3" height="136.5"/>
				</g>
			</mask>
			
				<linearGradient id="SVGID_00000064333317555982942490000011466072294875009167_" gradientUnits="userSpaceOnUse" x1="637.2387" y1="1143.75" x2="512.2787" y2="1143.75" gradientTransform="matrix(1 0 0 -1 0 2002)">
				<stop  offset="0" style="stop-color:#FFFFFF"/>
				<stop  offset="1" style="stop-color:#FFFFFF"/>
			</linearGradient>
			
				<rect x="422.4" y="790" style="fill:url(#SVGID_00000064333317555982942490000011466072294875009167_);" width="194.3" height="136.5"/>
		</mask>
		<path class="st5" d="M566.5,905.5c13.8-37.3-8.7-74.3-54-67.1c-21.7,3.4-41,17.2-43.4,39.8c-14.7-8.1-30.7-12.1-46.7-12.4
			c10-57.1,73.1-84.9,125.1-73.2c3.5,50.3,30.6,90.6,69.2,109.5c-1.5,8.3-3.9,16.5-7.1,24.4C597.7,915.2,582.5,908.8,566.5,905.5z"
			/>
		<defs>
			
				<filter id="Adobe_OpacityMaskFilter_00000165192038632285520970000000592462102140504971_" filterUnits="userSpaceOnUse" x="469.3" y="902.8" width="161.2" height="148.4">
				<feColorMatrix  type="matrix" values="1 0 0 0 0  0 1 0 0 0  0 0 1 0 0  0 0 0 1 0"/>
			</filter>
		</defs>
		<mask maskUnits="userSpaceOnUse" x="469.3" y="902.8" width="161.2" height="148.4" id="id4_1_">
			<defs>
				
					<filter id="Adobe_OpacityMaskFilter_00000051370500829453438970000012253138868261978802_" filterUnits="userSpaceOnUse" x="469.3" y="902.8" width="161.2" height="148.5">
					<feFlood  style="flood-color:white;flood-opacity:1" result="back"/>
					<feBlend  in="SourceGraphic" in2="back" mode="normal"/>
				</filter>
			</defs>
			
				<mask maskUnits="userSpaceOnUse" x="469.3" y="902.8" width="161.2" height="148.5" id="id4_1_" style="filter:url(#Adobe_OpacityMaskFilter_00000165192038632285520970000000592462102140504971_);">
				<g style="filter:url(#Adobe_OpacityMaskFilter_00000051370500829453438970000012253138868261978802_);">
					<defs>
						
							<filter id="Adobe_OpacityMaskFilter_00000181071860806856961420000000413549885652532872_" filterUnits="userSpaceOnUse" x="469.3" y="902.8" width="161.2" height="148.5">
							<feFlood  style="flood-color:white;flood-opacity:1" result="back"/>
							<feBlend  in="SourceGraphic" in2="back" mode="normal"/>
						</filter>
					</defs>
					<mask maskUnits="userSpaceOnUse" x="469.3" y="902.8" width="161.2" height="148.5" id="id4_1_">
						<g style="filter:url(#Adobe_OpacityMaskFilter_00000181071860806856961420000000413549885652532872_);">
						</g>
					</mask>
					
						<linearGradient id="SVGID_00000068640808570566516160000011870272788244654254_" gradientUnits="userSpaceOnUse" x1="470.2006" y1="1024.9625" x2="577.3806" y2="1024.9725" gradientTransform="matrix(1 0 0 -1 0 2002)">
						<stop  offset="0" style="stop-color:#FFFFFF"/>
						<stop  offset="1" style="stop-color:#000000"/>
					</linearGradient>
					
						<rect x="469.3" y="902.8" style="mask:url(#id4_1_);fill:url(#SVGID_00000068640808570566516160000011870272788244654254_);" width="161.2" height="148.5"/>
				</g>
			</mask>
			
				<linearGradient id="SVGID_00000051373223902895187110000007208512138922448050_" gradientUnits="userSpaceOnUse" x1="470.2006" y1="1024.9625" x2="577.3806" y2="1024.9725" gradientTransform="matrix(1 0 0 -1 0 2002)">
				<stop  offset="0" style="stop-color:#FFFFFF"/>
				<stop  offset="1" style="stop-color:#FFFFFF"/>
			</linearGradient>
			
				<rect x="469.3" y="902.8" style="fill:url(#SVGID_00000051373223902895187110000007208512138922448050_);" width="161.2" height="148.5"/>
		</mask>
		<path class="st5" d="M501.1,906c37.5-6.4,92.8-6.6,118.6,32.8c27.9,42.7,0,100.2-63.8,110.6c-32.1,5.2-62.9-1.3-86.6-7.7
			c16.8-8.1,30.3-23,38.8-40.8c28.1,4.5,60.3,4.3,72-17c9.2-16.9-6.9-30.8-30.8-32.8c-11-0.9-22.2-0.2-31.7,0.9
			C516.6,936,511.4,920.1,501.1,906L501.1,906z"/>
		<defs>
			
				<filter id="Adobe_OpacityMaskFilter_00000045582894957517560080000003829711377414699667_" filterUnits="userSpaceOnUse" x="799.2" y="697.9" width="138.9" height="160.2">
				<feColorMatrix  type="matrix" values="1 0 0 0 0  0 1 0 0 0  0 0 1 0 0  0 0 0 1 0"/>
			</filter>
		</defs>
		<mask maskUnits="userSpaceOnUse" x="799.2" y="697.9" width="138.9" height="160.2" id="id6_1_">
			<defs>
				
					<filter id="Adobe_OpacityMaskFilter_00000082366883512267310750000012189160481621890186_" filterUnits="userSpaceOnUse" x="799.2" y="697.9" width="138.9" height="160.2">
					<feFlood  style="flood-color:white;flood-opacity:1" result="back"/>
					<feBlend  in="SourceGraphic" in2="back" mode="normal"/>
				</filter>
			</defs>
			
				<mask maskUnits="userSpaceOnUse" x="799.2" y="697.9" width="138.9" height="160.2" id="id6_1_" style="filter:url(#Adobe_OpacityMaskFilter_00000045582894957517560080000003829711377414699667_);">
				<g style="filter:url(#Adobe_OpacityMaskFilter_00000082366883512267310750000012189160481621890186_);">
					<defs>
						
							<filter id="Adobe_OpacityMaskFilter_00000058561235180367555420000005231886719595984776_" filterUnits="userSpaceOnUse" x="799.2" y="697.9" width="138.9" height="160.2">
							<feFlood  style="flood-color:white;flood-opacity:1" result="back"/>
							<feBlend  in="SourceGraphic" in2="back" mode="normal"/>
						</filter>
					</defs>
					<mask maskUnits="userSpaceOnUse" x="799.2" y="697.9" width="138.9" height="160.2" id="id6_1_">
						<g style="filter:url(#Adobe_OpacityMaskFilter_00000058561235180367555420000005231886719595984776_);">
						</g>
					</mask>
					
						<linearGradient id="SVGID_00000106866195361132137860000007423940080899856535_" gradientUnits="userSpaceOnUse" x1="937.2903" y1="1113.3141" x2="840.7602" y2="1268.954" gradientTransform="matrix(1 0 0 -1 0 2002)">
						<stop  offset="0" style="stop-color:#FFFFFF"/>
						<stop  offset="1" style="stop-color:#000000"/>
					</linearGradient>
					
						<rect x="799.2" y="697.9" style="mask:url(#id6_1_);fill:url(#SVGID_00000106866195361132137860000007423940080899856535_);" width="138.9" height="160.2"/>
				</g>
			</mask>
			
				<linearGradient id="SVGID_00000072272880034396300360000002659386752734376088_" gradientUnits="userSpaceOnUse" x1="937.2903" y1="1113.3141" x2="840.7602" y2="1268.954" gradientTransform="matrix(1 0 0 -1 0 2002)">
				<stop  offset="0" style="stop-color:#FFFFFF"/>
				<stop  offset="1" style="stop-color:#FFFFFF"/>
			</linearGradient>
			
				<rect x="799.2" y="697.9" style="fill:url(#SVGID_00000072272880034396300360000002659386752734376088_);" width="138.9" height="160.2"/>
		</mask>
		<path class="st5" d="M838.8,697.9l-39.6,27.2c29.2,38.1,44.3,89.5,72.4,133c23.1-8.6,45.9-8,66.4-0.7
			c-34.2-28.9-59-92.4-82.8-134.5C850.1,713.9,844.6,705.6,838.8,697.9L838.8,697.9z"/>
	</g>
</g>
<g id="Layer_2">
</g>
</svg>
