<?xml version="1.0" encoding="UTF-8"?>
<svg id="Layer_1" data-name="Layer 1" xmlns="http://www.w3.org/2000/svg" viewBox="0 0 176.79 133.66">
  <defs>
    <style>
      .cls-1 {
        fill: #fff;
      }
    </style>
  </defs>
  <path class="cls-1" d="m65.02,107.06c21.99-46.42-9.78-71.85-9.78-71.85,0,0,61.85,1.86,83.95,82.48,8.09-1.25,14.69-4.03,19.88-7.87,6.25-6.7,10.08-15.69,10.08-25.58,0-20.17-15.92-36.62-35.88-37.48C132.23,20.76,110.83,0,84.58,0s-47.65,20.76-48.7,46.76C15.92,47.62,0,64.07,0,84.24c0,12.79,6.41,24.08,16.18,30.85,8.96-4.58,24.85-9.86,48.84-8.03Zm-9.06-24.45c1.86-1.28,4.33-.73,6.85,2.94,4,5.82-2.11,17.75-2.11,17.75.34-7.49-2.38-9.75-4.44-12.75s-2.17-6.66-.31-7.94Zm-11.56,15.54c.07-1.71,1.53-2.96,4.91-2.81,5.35.22,9.81,9.37,9.81,9.37-4.39-3.62-7-3-9.75-3.12-2.75-.11-5.03-1.72-4.96-3.43Z"/>
  <path class="cls-1" d="m173.4,70.97c14.21,43.67-17.18,75.62-76.57,57.53-65.24-19.87-89.63-4.12-89.63-4.12,0,0,27.12-26.53,91.91-7.46,59.55,17.54,80.16-15.76,74.29-45.96Z"/>
</svg>